# xmcd
#
# Track frame offsets:
#	150
#	17284
#	37897
#	58990
#	75048
#	86424
#	99216
#	120590
#	137099
#	150329
#	172273
#	188437
#	199951
#	214412
#	234568
#	255262
#
# Disc length: 3621
#
# Revision: 4
# Processed by: cddbd v1.5.1PL0 Copyright (c) Steve Scherf et al.
# Submitted via: OrangeCD 5.2
# Normalized: r3:DSETVAR1
#
DISCID=bd0e2310
DTITLE=Various Artist - Roll Up The Rug - Triple-Time Swing, Volume 2
DYEAR=1996
DGENRE=Blues
TTITLE0=Johnny Adams - The Hunt Is On
TTITLE1=Buddy Guy - Change In The Weather
TTITLE2=Roomful Of Blues - One Bayou Drive
TTITLE3=Bluesiana Triangle - Doctor Blooze
TTITLE4=Kenny Neal - Early One Morning
TTITLE5=Tommy Ridgley - My Ordinary Girl
TTITLE6=Nathan and The Zydeco Cha Chas - Your Mama Don't Know
TTITLE7=Robert Lucas - Built For Comfort
TTITLE8=Koko Taylor - Honkey Tonkey
TTITLE9=Beau Jocque - Pop That Coochie
TTITLE10=The Smokin' Joe Kubek Band - Natural Born Lover
TTITLE11=Greg Piccolo - It's Obdacious
TTITLE12=Mark Ford with The Robben Ford Band - My Baby Didn't Come
TTITLE13=Johnny Adams - Imitation of Love
TTITLE14=Lloyd Jones - Toughen Up
TTITLE15=Red Knuckles And The Trailblazers - On Monday
EXTD=
EXTT0=
EXTT1=
EXTT2=
EXTT3=
EXTT4=
EXTT5=
EXTT6=
EXTT7=
EXTT8=
EXTT9=
EXTT10=
EXTT11=
EXTT12=
EXTT13=
EXTT14=
EXTT15=
PLAYORDER=
